<svg version="1.1" baseProfile="full" width="306.0" height="673.0" viewbox="0 0 306 673" xmlns="http://www.w3.org/2000/svg" xmlns:xlink="http://www.w3.org/1999/xlink" xmlns:ev="http://www.w3.org/2001/xml-events">
		<desc >#.free: dashed
	#.write: stroke=green dashed
	#.read: fill=#8f8
	
	[Linked Ring|size: 4;read: Cell_1;write: Cell_0|
	[Cells|
	[&lt;read&gt;Cell_1|owner: 0x2;data: 0xCB]
	[Cell_1]o-&gt;[Cell_2]
	[Cell_2|owner: 0x1;data: 0xAB]
	[Cell_2]o-&gt;[Cell_3]
	[Cell_3|owner: 0x2;data: 0x00]
	[Cell_3]o-&gt;[&lt;write&gt;Cell_0]
	[Cell_0]o-&gt;[Cell_1]
	]
	]</desc>
	<g stroke-width="1.0" text-align="left" font="12pt Helvetica, Arial, sans-serif" font-size="12pt" font-family="Helvetica" font-weight="bold" font-style="normal">
			<g transform="translate(0.5, 0.5)" font-family="Helvetica" font-size="12pt" font-weight="bold" font-style="normal" stroke-width="3.0" stroke-linejoin="round" stroke-linecap="round" stroke="#33322E">
				<g stroke="transparent" fill="transparent">
					<rect x="0.0" y="0.0" height="673.0" width="306.0" stroke="none"></rect>
				</g>
			<g transform="translate(8, 8)" fill="#33322E">
					<g transform="translate(20, 20)">
						<g data-name="Linked Ring">
							<g fill="#eee8d5" stroke="#33322E" data-name="Linked Ring">
								<rect x="0.0" y="0.0" height="617.0" width="250.0" data-name="Linked Ring"></rect>
							<path d="M0.0 31.0 L250.0 31.0" fill="none" data-name="Linked Ring"></path>
							<path d="M0.0 92.0 L250.0 92.0" fill="none" data-name="Linked Ring"></path>
							</g>
						<g transform="translate(0, 0)" font-family="Helvetica" font-size="12pt" font-weight="bold" font-style="normal" data-name="Linked Ring">
								<g transform="translate(8, 8)" fill="#33322E" text-align="center" data-name="Linked Ring">
									<text x="117.0" y="13.5" stroke="none" text-anchor="middle" data-name="Linked Ring">Linked Ring</text>
								
								</g>
							</g>
						<g transform="translate(0, 31)" font-family="Helvetica" font-size="12pt" font-weight="normal" font-style="normal" data-name="Linked Ring">
								<g transform="translate(8, 8)" fill="#33322E" text-align="left" data-name="Linked Ring">
									<text x="0.0" y="13.5" stroke="none" data-name="Linked Ring">size: 4</text>
								<text x="0.0" y="28.5" stroke="none" data-name="Linked Ring">read: Cell_1</text>
								<text x="0.0" y="43.5" stroke="none" data-name="Linked Ring">write: Cell_0</text>
								
								</g>
							</g>
						<g transform="translate(0, 92)" font-family="Helvetica" font-size="12pt" font-weight="normal" font-style="normal" data-name="Linked Ring">
								<g transform="translate(8, 8)" fill="#33322E" data-name="Linked Ring">
									<g transform="translate(20, 20)" data-name="Linked Ring">
										<g data-name="Cells">
											<g fill="#fdf6e3" stroke="#33322E" data-name="Cells">
												<rect x="0.0" y="0.0" height="469.0" width="194.0" data-name="Cells"></rect>
											<path d="M0.0 31.0 L194.0 31.0" fill="none" data-name="Cells"></path>
											</g>
										<g transform="translate(0, 0)" font-family="Helvetica" font-size="12pt" font-weight="bold" font-style="normal" data-name="Cells">
												<g transform="translate(8, 8)" fill="#33322E" text-align="center" data-name="Cells">
													<text x="89.0" y="13.5" stroke="none" text-anchor="middle" data-name="Cells">Cells</text>
												
												</g>
											</g>
										<g transform="translate(0, 31)" font-family="Helvetica" font-size="12pt" font-weight="normal" font-style="normal" data-name="Cells">
												<g transform="translate(8, 8)" fill="#33322E" data-name="Cells">
													<g transform="translate(20, 20)" fill="#33322E" font-family="Helvetica" font-size="12pt" font-weight="normal" font-style="normal" data-name="Cells">
														<path d="M50.7 92.0 L47 97 L47 110.33333333333333 L47.0 110.3 " fill="none" data-name="Cells"></path>
													<path d="M41.7 103.7 L47.0 110.3 L52.3 103.7 L47.0 117.0 Z" data-name="Cells"></path>
													<g fill="#eee8d5" data-name="Cells">
															<path d="M60.6 87.7 L50.7 92.0 L52.0 81.3 L61.9 77.0 Z" data-name="Cells"></path>
														</g>
													<path d="M47.0 212.7 L47 214 L47 227.33333333333334 L47.0 227.3 " fill="none" data-name="Cells"></path>
													<path d="M41.7 220.7 L47.0 227.3 L52.3 220.7 L47.0 234.0 Z" data-name="Cells"></path>
													<g fill="#eee8d5" data-name="Cells">
															<path d="M52.3 203.3 L47.0 212.7 L41.7 203.3 L47.0 194.0 Z" data-name="Cells"></path>
														</g>
													<path d="M47.0 329.7 L47 331 L66.34204077380326 346.78488384988543 L66.3 346.8 " fill="none" data-name="Cells"></path>
													<path d="M57.8 346.7 L66.3 346.8 L64.5 338.4 L71.5 351.0 Z" data-name="Cells"></path>
													<g fill="#eee8d5" data-name="Cells">
															<path d="M52.3 320.3 L47.0 329.7 L41.7 320.3 L47.0 311.0 Z" data-name="Cells"></path>
														</g>
													<path d="M124.0 339.2 L134 331 L134 272.5 L134 272.5 L134 214 L134 214 L134 155.5 L134 155.5 L134 97 L134 97 L123.1062235705022 82.34974893964089 L123.1 82.3 " fill="none" data-name="Cells"></path>
													<path d="M131.4 84.5 L123.1 82.3 L122.8 90.9 L119.1 77.0 Z" data-name="Cells"></path>
													<g fill="#eee8d5" data-name="Cells">
															<path d="M113.4 341.0 L124.0 339.2 L120.1 349.2 L109.5 351.0 Z" data-name="Cells"></path>
														</g>
													<g data-name="Cell_1">
															<g fill="#8f8" stroke="#33322E" data-name="Cell_1">
																<rect x="43.0" y="0.0" height="77.0" width="95.0" data-name="Cell_1"></rect>
															<path d="M43.0 31.0 L138.0 31.0" fill="none" data-name="Cell_1"></path>
															</g>
														<g transform="translate(43, 0)" font-family="Helvetica" font-size="12pt" font-weight="normal" font-style="normal" data-name="Cell_1">
																<g transform="translate(8, 8)" fill="#33322E" text-align="center" data-name="Cell_1">
																	<text x="39.5" y="13.5" stroke="none" text-anchor="middle" data-name="Cell_1">Cell_1</text>
																
																</g>
															</g>
														<g transform="translate(43, 31)" font-family="Helvetica" font-size="12pt" font-weight="normal" font-style="normal" data-name="Cell_1">
																<g transform="translate(8, 8)" fill="#33322E" text-align="left" data-name="Cell_1">
																	<text x="0.0" y="13.5" stroke="none" data-name="Cell_1">owner: 0x2</text>
																<text x="0.0" y="28.5" stroke="none" data-name="Cell_1">data: 0xCB</text>
																
																</g>
															</g>
														</g>
													<g data-name="Cell_2">
															<g fill="#eee8d5" stroke="#33322E" data-name="Cell_2">
																<rect x="0.0" y="117.0" height="77.0" width="94.0" data-name="Cell_2"></rect>
															<path d="M0.0 148.0 L94.0 148.0" fill="none" data-name="Cell_2"></path>
															</g>
														<g transform="translate(0, 117)" font-family="Helvetica" font-size="12pt" font-weight="bold" font-style="normal" data-name="Cell_2">
																<g transform="translate(8, 8)" fill="#33322E" text-align="center" data-name="Cell_2">
																	<text x="39.0" y="13.5" stroke="none" text-anchor="middle" data-name="Cell_2">Cell_2</text>
																
																</g>
															</g>
														<g transform="translate(0, 148)" font-family="Helvetica" font-size="12pt" font-weight="normal" font-style="normal" data-name="Cell_2">
																<g transform="translate(8, 8)" fill="#33322E" text-align="left" data-name="Cell_2">
																	<text x="0.0" y="13.5" stroke="none" data-name="Cell_2">owner: 0x1</text>
																<text x="0.0" y="28.5" stroke="none" data-name="Cell_2">data: 0xAB</text>
																
																</g>
															</g>
														</g>
													<g data-name="Cell_3">
															<g fill="#eee8d5" stroke="#33322E" data-name="Cell_3">
																<rect x="0.0" y="234.0" height="77.0" width="94.0" data-name="Cell_3"></rect>
															<path d="M0.0 265.0 L94.0 265.0" fill="none" data-name="Cell_3"></path>
															</g>
														<g transform="translate(0, 234)" font-family="Helvetica" font-size="12pt" font-weight="bold" font-style="normal" data-name="Cell_3">
																<g transform="translate(8, 8)" fill="#33322E" text-align="center" data-name="Cell_3">
																	<text x="39.0" y="13.5" stroke="none" text-anchor="middle" data-name="Cell_3">Cell_3</text>
																
																</g>
															</g>
														<g transform="translate(0, 265)" font-family="Helvetica" font-size="12pt" font-weight="normal" font-style="normal" data-name="Cell_3">
																<g transform="translate(8, 8)" fill="#33322E" text-align="left" data-name="Cell_3">
																	<text x="0.0" y="13.5" stroke="none" data-name="Cell_3">owner: 0x2</text>
																<text x="0.0" y="28.5" stroke="none" data-name="Cell_3">data: 0x00</text>
																
																</g>
															</g>
														</g>
													<g data-name="Cell_0">
															<g fill="#eee8d5" stroke="green" stroke-dasharray="6 6" data-name="Cell_0">
																<rect x="59.0" y="351.0" height="31.0" width="63.0" data-name="Cell_0"></rect>
															</g>
														<g transform="translate(59, 351)" font-family="Helvetica" font-size="12pt" font-weight="normal" font-style="normal" data-name="Cell_0">
																<g transform="translate(8, 8)" fill="green" text-align="center" data-name="Cell_0">
																	<text x="23.5" y="13.5" stroke="none" text-anchor="middle" data-name="Cell_0">Cell_0</text>
																
																</g>
															</g>
														</g>
													</g>
												</g>
											</g>
										</g>
									</g>
								</g>
							</g>
						</g>
					</g>
				</g>
			</g>
		</g>
	</svg>