<svg version="1.1" baseProfile="full" width="306.3" height="627.0" viewbox="0 0 306.25 627" xmlns="http://www.w3.org/2000/svg" xmlns:xlink="http://www.w3.org/1999/xlink" xmlns:ev="http://www.w3.org/2001/xml-events">
		<desc >#.free: dashed
	#.write: stroke=green dashed
	#.read: fill=#8f8
	
	[Linked Ring|size: 4;read: Cell_0;write: Cell_2|
	[Cells|
	[&lt;read&gt;Cell_0|owner: 0x1;data: 0xFF]
	[Cell_0]o-&gt;[Cell_1]
	[Cell_1|owner: 0x2;data: 0xCB]
	[Cell_1]o-&gt;[&lt;write&gt;Cell_2]
	[Cell_2]
	[Cell_2]o-&gt;[&lt;free&gt;Cell_3]
	[Cell_3]
	[Cell_3]o-&gt;[Cell_0]
	]
	]</desc>
	<g stroke-width="1.0" text-align="left" font="12pt Helvetica, Arial, sans-serif" font-size="12pt" font-family="Helvetica" font-weight="bold" font-style="normal">
			<g transform="translate(0.5, 0.5)" font-family="Helvetica" font-size="12pt" font-weight="bold" font-style="normal" stroke-width="3.0" stroke-linejoin="round" stroke-linecap="round" stroke="#33322E">
				<g stroke="transparent" fill="transparent">
					<rect x="0.0" y="0.0" height="627.0" width="306.3" stroke="none"></rect>
				</g>
			<g transform="translate(8, 8)" fill="#33322E">
					<g transform="translate(20, 20)">
						<g data-name="Linked Ring">
							<g fill="#eee8d5" stroke="#33322E" data-name="Linked Ring">
								<rect x="0.0" y="0.0" height="571.0" width="250.3" data-name="Linked Ring"></rect>
							<path d="M0.0 31.0 L250.3 31.0" fill="none" data-name="Linked Ring"></path>
							<path d="M0.0 92.0 L250.3 92.0" fill="none" data-name="Linked Ring"></path>
							</g>
						<g transform="translate(0, 0)" font-family="Helvetica" font-size="12pt" font-weight="bold" font-style="normal" data-name="Linked Ring">
								<g transform="translate(8, 8)" fill="#33322E" text-align="center" data-name="Linked Ring">
									<text x="117.1" y="13.5" stroke="none" text-anchor="middle" data-name="Linked Ring">Linked Ring</text>
								
								</g>
							</g>
						<g transform="translate(0, 31)" font-family="Helvetica" font-size="12pt" font-weight="normal" font-style="normal" data-name="Linked Ring">
								<g transform="translate(8, 8)" fill="#33322E" text-align="left" data-name="Linked Ring">
									<text x="0.0" y="13.5" stroke="none" data-name="Linked Ring">size: 4</text>
								<text x="0.0" y="28.5" stroke="none" data-name="Linked Ring">read: Cell_0</text>
								<text x="0.0" y="43.5" stroke="none" data-name="Linked Ring">write: Cell_2</text>
								
								</g>
							</g>
						<g transform="translate(0, 92)" font-family="Helvetica" font-size="12pt" font-weight="normal" font-style="normal" data-name="Linked Ring">
								<g transform="translate(8, 8)" fill="#33322E" data-name="Linked Ring">
									<g transform="translate(20, 20)" data-name="Linked Ring">
										<g data-name="Cells">
											<g fill="#fdf6e3" stroke="#33322E" data-name="Cells">
												<rect x="0.0" y="0.0" height="423.0" width="194.3" data-name="Cells"></rect>
											<path d="M0.0 31.0 L194.3 31.0" fill="none" data-name="Cells"></path>
											</g>
										<g transform="translate(0, 0)" font-family="Helvetica" font-size="12pt" font-weight="bold" font-style="normal" data-name="Cells">
												<g transform="translate(8, 8)" fill="#33322E" text-align="center" data-name="Cells">
													<text x="89.1" y="13.5" stroke="none" text-anchor="middle" data-name="Cells">Cells</text>
												
												</g>
											</g>
										<g transform="translate(0, 31)" font-family="Helvetica" font-size="12pt" font-weight="normal" font-style="normal" data-name="Cells">
												<g transform="translate(8, 8)" fill="#33322E" data-name="Cells">
													<g transform="translate(20, 20)" fill="#33322E" font-family="Helvetica" font-size="12pt" font-weight="normal" font-style="normal" data-name="Cells">
														<path d="M51.3 91.9 L47.5 97 L47.5 110.33333333333333 L47.5 110.3 " fill="none" data-name="Cells"></path>
													<path d="M42.2 103.7 L47.5 110.3 L52.8 103.7 L47.5 117.0 Z" data-name="Cells"></path>
													<g fill="#eee8d5" data-name="Cells">
															<path d="M61.1 87.7 L51.3 91.9 L52.6 81.3 L62.5 77.0 Z" data-name="Cells"></path>
														</g>
													<path d="M47.5 212.7 L47.5 214 L47.5 227.33333333333334 L47.5 227.3 " fill="none" data-name="Cells"></path>
													<path d="M42.2 220.7 L47.5 227.3 L52.8 220.7 L47.5 234.0 Z" data-name="Cells"></path>
													<g fill="#eee8d5" data-name="Cells">
															<path d="M52.8 203.3 L47.5 212.7 L42.2 203.3 L47.5 194.0 Z" data-name="Cells"></path>
														</g>
													<path d="M47.5 283.7 L47.5 285 L66.97108050761909 300.7993910404681 L67.0 300.8 " fill="none" data-name="Cells"></path>
													<path d="M58.4 300.7 L67.0 300.8 L65.2 292.5 L72.1 305.0 Z" data-name="Cells"></path>
													<g fill="#eee8d5" data-name="Cells">
															<path d="M52.8 274.3 L47.5 283.7 L42.2 274.3 L47.5 265.0 Z" data-name="Cells"></path>
														</g>
													<path d="M124.8 293.2 L135 285 L135 249.5 L135 249.5 L135 214 L135 214 L135 155.5 L135 155.5 L135 97 L135 97 L124.0354303662353 82.33880403256606 L124.0 82.3 " fill="none" data-name="Cells"></path>
													<path d="M132.3 84.5 L124.0 82.3 L123.8 90.9 L120.0 77.0 Z" data-name="Cells"></path>
													<g fill="#eee8d5" data-name="Cells">
															<path d="M114.2 295.0 L124.8 293.2 L121.0 303.3 L110.4 305.0 Z" data-name="Cells"></path>
														</g>
													<g data-name="Cell_0">
															<g fill="#8f8" stroke="#33322E" data-name="Cell_0">
																<rect x="44.0" y="0.0" height="77.0" width="94.0" data-name="Cell_0"></rect>
															<path d="M44.0 31.0 L138.0 31.0" fill="none" data-name="Cell_0"></path>
															</g>
														<g transform="translate(44, 0)" font-family="Helvetica" font-size="12pt" font-weight="normal" font-style="normal" data-name="Cell_0">
																<g transform="translate(8, 8)" fill="#33322E" text-align="center" data-name="Cell_0">
																	<text x="39.0" y="13.5" stroke="none" text-anchor="middle" data-name="Cell_0">Cell_0</text>
																
																</g>
															</g>
														<g transform="translate(44, 31)" font-family="Helvetica" font-size="12pt" font-weight="normal" font-style="normal" data-name="Cell_0">
																<g transform="translate(8, 8)" fill="#33322E" text-align="left" data-name="Cell_0">
																	<text x="0.0" y="13.5" stroke="none" data-name="Cell_0">owner: 0x1</text>
																<text x="0.0" y="28.5" stroke="none" data-name="Cell_0">data: 0xFF</text>
																
																</g>
															</g>
														</g>
													<g data-name="Cell_1">
															<g fill="#eee8d5" stroke="#33322E" data-name="Cell_1">
																<rect x="0.0" y="117.0" height="77.0" width="95.0" data-name="Cell_1"></rect>
															<path d="M0.0 148.0 L95.0 148.0" fill="none" data-name="Cell_1"></path>
															</g>
														<g transform="translate(0, 117)" font-family="Helvetica" font-size="12pt" font-weight="bold" font-style="normal" data-name="Cell_1">
																<g transform="translate(8, 8)" fill="#33322E" text-align="center" data-name="Cell_1">
																	<text x="39.5" y="13.5" stroke="none" text-anchor="middle" data-name="Cell_1">Cell_1</text>
																
																</g>
															</g>
														<g transform="translate(0, 148)" font-family="Helvetica" font-size="12pt" font-weight="normal" font-style="normal" data-name="Cell_1">
																<g transform="translate(8, 8)" fill="#33322E" text-align="left" data-name="Cell_1">
																	<text x="0.0" y="13.5" stroke="none" data-name="Cell_1">owner: 0x2</text>
																<text x="0.0" y="28.5" stroke="none" data-name="Cell_1">data: 0xCB</text>
																
																</g>
															</g>
														</g>
													<g data-name="Cell_2">
															<g fill="#eee8d5" stroke="green" stroke-dasharray="6 6" data-name="Cell_2">
																<rect x="16.0" y="234.0" height="31.0" width="63.0" data-name="Cell_2"></rect>
															</g>
														<g transform="translate(16, 234)" font-family="Helvetica" font-size="12pt" font-weight="normal" font-style="normal" data-name="Cell_2">
																<g transform="translate(8, 8)" fill="green" text-align="center" data-name="Cell_2">
																	<text x="23.5" y="13.5" stroke="none" text-anchor="middle" data-name="Cell_2">Cell_2</text>
																
																</g>
															</g>
														</g>
													<g data-name="Cell_3">
															<g fill="#eee8d5" stroke="#33322E" stroke-dasharray="6 6" data-name="Cell_3">
																<rect x="60.0" y="305.0" height="31.0" width="63.0" data-name="Cell_3"></rect>
															</g>
														<g transform="translate(60, 305)" font-family="Helvetica" font-size="12pt" font-weight="normal" font-style="normal" data-name="Cell_3">
																<g transform="translate(8, 8)" fill="#33322E" text-align="center" data-name="Cell_3">
																	<text x="23.5" y="13.5" stroke="none" text-anchor="middle" data-name="Cell_3">Cell_3</text>
																
																</g>
															</g>
														</g>
													</g>
												</g>
											</g>
										</g>
									</g>
								</g>
							</g>
						</g>
					</g>
				</g>
			</g>
		</g>
	</svg>